<svg id="Layer_1" data-name="Layer 1" xmlns="http://www.w3.org/2000/svg" viewBox="0 0 2623.29 730.31"><defs><style>.cls-1{fill:#fff;}</style></defs><title>logo-white</title><path class="cls-1" d="M426.69,456.69c0,42.66,0,84.58,0,126.5,0,8.77-.29,17.56.19,26.31.32,5.74-.71,8.46-7.35,7.87a138,138,0,0,0-22.18.09c-6,.44-7.93-1.15-7.88-7.53.22-27.67-.17-55.36-.33-83-.16-26.58-.46-53.16-.33-79.74,0-5-1.44-7.13-6.32-8.37-8.43-2.13-16.65-5.15-25-7.75-7.69-2.41-11.11-.17-11.38,8.1-.65,20-1.3,40-1.42,60-.31,51-.33,102-.45,152.94,0,3.66-1.2,7.39,5.28,7.33,48.52-.49,61.09,26.47,70.36,60.4.5,1.84.83,3.73,1.23,5.6,4.39,20.41,4.39,20.22-16.12,20.13-36.14-.16-72.29-.06-108.44-.07q-24.66,0-49.33,0c-1.79,0-4.19,1-5.05-1.39s1.57-3.2,2.84-4.43q15.63-15.17,31.34-30.24c1.59-1.53,3.4-3.72,5.5-1.53,8.14,8.48,19,8.17,29.16,8.45,23.28.66,46.59.17,69.89.38,4.27,0,5.06-1.39,4.34-5.28C383,699,376.8,693,363.17,690.78c-14.39-2.35-28.92-2.51-43.41-2-6.4.23-8.58-1.36-8.56-8,.2-79.48.36-159,1.55-238.43.41-27.75,19.61-45.68,40.18-52.2,64.18-20.33,128.9-38.95,193.32-58.53,4.93-1.5,6.1-.39,7.21,4a156.33,156.33,0,0,0,6.37,20.24c2,5,.06,6.28-4.19,7.54q-71.79,21.3-143.5,42.85c-2.81.84-5.58,1.79-10.75,3.46,16.76,5,31.31,9.37,45.89,13.68q58,17.13,116.07,34.29a13.34,13.34,0,0,0,7.95.43c76.75-22.06,154.46-40.82,230.12-66.65,14.42-4.92,29-9.43,42.54-16.71,2.61-1.41,7-2.94,6.34-5.53-.73-2.81-4.06-5.09-7.88-6.21-19.08-5.59-38-11.64-57-17.57Q676.15,311.24,566.91,277a18.51,18.51,0,0,0-11.14-.48c-88.59,25.45-177.44,50-265.48,77.37-7,2.19-13.88,4.86-20.73,7.55-1.82.72-4.7,1.36-4.35,4,.23,1.67,2.4,2.44,4.27,3.19,7.32,3,14.39,6.52,21.72,9.43,3.33,1.31,4.1,2.55,2.63,6-3.1,7.26-5.88,14.67-8.44,22.14-1.21,3.53-2.8,4.05-6.07,2.58-10.67-4.78-21.83-8.48-31.66-15.06-22.65-15.16-22.6-42.68.15-57.6,11.59-7.61,24.86-11.19,37.84-15.16,89.45-27.32,179.4-52.9,269.46-78.09a20.81,20.81,0,0,1,12.73.17c37.2,12,74.42,23.91,111.74,35.52q84.23,26.19,168.59,51.92c11,3.38,20.72,8.59,27.86,17.83,13.71,17.75,9.38,39-10.88,52-18.1,11.6-38.68,17.42-58.82,24.11q-33.35,11.06-67,21.23c-5.32,1.61-7,3.84-7,9.5.19,31.78-.29,63.58-.12,95.36,0,6.45-1.6,8.92-8.31,8.34a157.87,157.87,0,0,0-22.18-.23c-5.62.3-7.42-1.28-7.32-7.18.49-27.12.27-54.26.77-81.38.12-6.48-1.83-7.06-7.38-5.5-37.8,10.63-75.68,21-113.48,31.57a25.42,25.42,0,0,1-15-.44c-42.29-12.73-84.67-25.14-127-37.63C430.81,457.49,429.19,457.24,426.69,456.69Z" transform="translate(-230.71 -81.69)"/><path class="cls-1" d="M2437.75,405.3c3.6-12.11,6.74-22.43,9.72-32.79,10-34.86,20.14-69.7,29.88-104.64,1.51-5.41,3.59-7.48,9.42-7.12a273.36,273.36,0,0,0,28.77,0c4.79-.21,6.76,1.73,8,6q19,66.9,38.11,133.75c.22.75.58,1.45,1.28,3.16,3.74-6.79,4.88-13.63,6.85-20.12,11.58-38.06,23.12-76.14,34.33-114.31,1.81-6.14,4-8.95,11.08-8.54,12.82.74,25.71.21,39.84.21-5,15.9-9.69,31.08-14.47,46.23-16.44,52.21-33,104.39-49.25,156.67-1.85,5.93-4.5,8.25-10.84,7.92-10.66-.54-21.39-.45-32.06,0-5.41.22-7.32-1.64-8.79-6.85-12.24-43.26-24.88-86.41-37.37-129.6-.38-1.31-.42-2.73-2.53-3.2q-15.95,54.76-31.89,109.57c-2.43,8.38-4.89,16.74-7.22,25.14-.87,3.14-1.87,5.06-5.95,5-12.6-.36-25.22-.42-37.81,0-5.61.19-5.76-3.48-6.88-7.06q-21.3-67.86-42.67-135.69c-7-22.32-14.05-44.65-21.41-68h45.36c4.45,0,4,3.77,4.8,6.44C2409.75,312.68,2423.44,358,2437.75,405.3Z" transform="translate(-230.71 -81.69)"/><path class="cls-1" d="M1111.77,350c19.94-28.09,39.5-55.41,58.72-83,3.19-4.58,6.48-6.45,12-6.22,10.67.43,21.38.36,32.06,0,4.78-.16,6.52.78,6.51,6.13q-.31,99.09,0,198.17c0,5.73-2,6.75-7,6.58-10.13-.35-20.29-.46-30.41,0-5.77.28-7.29-1.41-7.25-7.2.25-42.21.14-84.42.14-126.63V327.7c-8.33,11.35-15.49,21.06-22.59,30.82-12.85,17.69-25.86,35.28-38.38,53.21-3.69,5.27-5.28,4.18-8.44-.27-18.71-26.26-37.65-52.37-56.52-78.52-.89-1.22-1.87-2.38-4-5.12v10.44c0,41.94-.14,83.87.15,125.81,0,6.13-1.38,8-7.63,7.67-10.39-.57-20.83-.31-31.24-.08-4,.09-5.8-.61-5.79-5.27q.23-100.32,0-200.64c0-4.18,1.4-5.4,5.19-4.85a11.2,11.2,0,0,0,1.64,0c13.14.13,28-3.54,38.94,1.45s15.86,20.07,23.53,30.65c6.74,9.29,13.25,18.75,19.88,28.12S1104.57,339.85,1111.77,350Z" transform="translate(-230.71 -81.69)"/><path class="cls-1" d="M1474.27,366.13c0-32.88.12-65.75-.13-98.62-.05-5.39,1.39-6.93,6.75-6.73,10.94.43,21.93.53,32.86,0,6.15-.31,7,2,7,7.42-.29,23,.1,46-.27,69-.1,6.1,1.41,7.9,7.67,7.79q33.27-.6,66.57,0c6,.09,7.22-2,7.16-7.52-.26-23.28.06-46.57-.24-69.85-.07-5.53,1.63-7,7-6.84,11.22.39,22.46.29,33.69,0,4.3-.09,5.66,1.29,5.65,5.62q-.17,99.44,0,198.88c0,5.23-2,6.49-6.78,6.35-10.4-.3-20.84-.47-31.22,0-6.42.32-8.48-1.47-8.37-8.14.41-23.82-.11-47.67.34-71.49.12-6.42-1.83-7.55-7.73-7.46-22.46.35-44.93.31-67.39,0-5.12-.07-6.39,1.37-6.33,6.42.28,23.83-.26,47.67.34,71.49.2,7.94-2.45,9.59-9.63,9.17a239,239,0,0,0-29.56,0c-6.53.43-7.53-1.95-7.48-7.82C1474.42,431.33,1474.27,398.73,1474.27,366.13Z" transform="translate(-230.71 -81.69)"/><path class="cls-1" d="M1214,653.71c0-32.33.14-64.65-.13-97,0-6,.94-8.34,7.81-8.29q69,.54,138.07,0c6.69-.05,8.25,2,7.85,8.17a167.44,167.44,0,0,0,0,23.81c.5,6.61-1.11,8.72-8.24,8.61-30.67-.46-61.36-.06-92-.32-5.49-.05-7.71.93-7.4,7,.53,10.66.48,21.38,0,32-.25,5.63,1.71,6.8,7,6.75,27.39-.24,54.79,0,82.18-.22,5.07,0,7.33.84,6.9,6.56a156.37,156.37,0,0,0,0,22.18c.38,5.69-1.3,7.36-7.14,7.3-27.12-.33-54.24.08-81.36-.32-6.36-.09-7.79,1.82-7.52,7.79.48,10.94.47,21.92,0,32.86-.26,6.1,1.06,8.28,7.81,8.19,31.5-.42,63-.08,94.51-.3,5.08,0,7.19.87,6.88,6.56-.53,9.56-.34,19.17-.06,28.75.13,4.3-1.19,5.56-5.53,5.55q-71.91-.23-143.82,0c-5.93,0-5.79-3-5.78-7.12Q1214.05,703,1214,653.71Z" transform="translate(-230.71 -81.69)"/><path class="cls-1" d="M859.56,575.81q-16.62,18-33.22,35.94c-3,3.26-4.69.6-6.58-1.37-4.28-4.45-9-7.82-15.61-7.91-11.84-.18-18.67,9.82-13.94,20.59,1.8,4.11,4.9,7.2,8,10.28,13,12.84,25.93,25.83,36.23,41.08,5.55,8.21,9.95,17,11.74,26.82,2.74,15.06-2,26.18-14.75,34.48a75.47,75.47,0,0,1-41.86,12.52q-97.85,0-195.7-.34c-8.26,0-9.28-1.3-6.78-9.21,6.43-20.38,21.28-34.75,35.72-49.36,4.37-4.41,9-8.55,15-14.24-14.37-1.28-26.51-1.82-36.54,7.25-3.73,3.38-5.61,3.16-7.84-1.1-5.17-9.9-10.37-19.78-15.82-29.53-2.64-4.72-.78-5.46,3.64-5.46,33.44,0,66.87,0,100.31-.19,6.51,0,5.89,2.54,3.68,6.84a149,149,0,0,1-26.61,36.26c-8,8.15-15.7,16.58-25.34,26.79h15.82c17,0,34-.12,51,.18,5.44.1,7.32-1.43,6.48-7-1-6.55-.81-13.34-8.31-16.51-2.42-1-2.53-2.68-.85-4.49,12-12.92,24-25.83,36.14-38.89,2.75,3.16,1.66,6,1.7,8.6.23,17.27.49,34.53.32,51.8,0,5,1.41,6.61,6.46,6.52,17.54-.3,35.09-.32,52.63-.15,8.88.09,15.73-3.07,18.87-11.51s-1.58-14.87-7.52-20.14c-10.89-9.65-21.46-19.58-30.43-31.08-7.1-9.12-13.33-18.74-16-30.22-3.47-14.74.35-27.23,12.15-36.75,10.41-8.41,21.81-13.78,36-13,16.88.86,33.83.2,50.76.2C858.86,574.21,859.21,575,859.56,575.81Z" transform="translate(-230.71 -81.69)"/><path class="cls-1" d="M1974,257.21c23.33.26,45.46,5.72,66.89,14.71,5.09,2.13,6.84,4.11,3.89,9.5a252.52,252.52,0,0,0-11.2,23.63c-2.08,5-4.13,6.24-9.5,3.72a116.89,116.89,0,0,0-52.47-11.16c-7.82.15-15.26,1.81-21.66,6.51-11.32,8.32-10.84,22.38,1,29.93,11.57,7.38,25.14,8.95,38,12.64,13.15,3.79,26.36,7.25,38.27,14.27,35.49,20.89,38.1,73.64,4.72,98-19.87,14.48-42.84,17.25-66.45,15.89a172.47,172.47,0,0,1-69.08-19c-6.11-3.12-6.24-5.83-2.77-11,5.33-7.91,10.29-16.1,15-24.41,2.24-4,3.93-4.32,8-2.07,20,10.95,41.07,17.82,64.29,15.87,7-.59,13.42-2.43,19-6.8,9.79-7.63,9.88-21.19.1-28.85-8.66-6.77-19.24-9-29.47-11.66-12.08-3.16-24.2-6.27-35.82-10.78-23.13-9-38.93-24.35-40.61-50.56-1.64-25.37,8.92-44.57,30.81-57.31C1940.07,259.43,1956.82,257.11,1974,257.21Z" transform="translate(-230.71 -81.69)"/><path class="cls-1" d="M2257.68,257.35c14.79.14,36.9,5.66,58.39,14.52,6.2,2.56,6.51,5.1,3.57,10.46a222,222,0,0,0-11.2,23.65c-2,4.83-4,5.14-8.42,3.08a119.68,119.68,0,0,0-53.29-11.46,40,40,0,0,0-18.18,4.38c-6.76,3.55-11,8.84-11.37,16.76s4.06,12.87,10.39,16.33c11.66,6.36,24.81,8.19,37.36,11.83,11.82,3.42,23.64,6.68,34.61,12.47,21,11.09,30.86,28.64,30.7,52.12-.15,23.32-10.27,40.93-30.69,52.26-17,9.46-35.71,11.95-54.82,11.25a170.85,170.85,0,0,1-73.88-19.66c-4.64-2.43-6.59-4.12-2.78-9.41a247,247,0,0,0,15.38-25.17c2.39-4.33,4.21-4.83,8.66-2.34,19.69,11,40.61,17.57,63.54,15.8a37,37,0,0,0,16.4-4.71c13.57-8,14-24.22.79-32.64-10.58-6.73-22.88-8.73-34.7-12-12.9-3.55-25.67-7.28-37.82-13.14-41.56-20.05-40.74-79.19-3.08-101.89C2211.26,261.41,2229.43,256.72,2257.68,257.35Z" transform="translate(-230.71 -81.69)"/><path class="cls-1" d="M2181.51,563c-4.88,10.29-10,20.23-14.29,30.52-2.19,5.26-4.43,5.27-9,3.11a116.75,116.75,0,0,0-53.29-11.18c-7.27.2-14.14,1.79-20.21,5.91-11.81,8-11.68,22.67.24,30.53,7.93,5.24,17.18,7,26.1,9.45,12.37,3.43,24.91,6.25,36.89,11,28.48,11.25,42.18,30.7,41.33,58.59-.82,27.15-16.33,48-44.56,56.43-41.47,12.39-80.6,3.64-118.06-15.91-3.19-1.66-2.49-3-1-5.45,5.67-9,11.26-18.09,16.56-27.32,2.32-4,4.08-5,8.72-2.43,19.67,11,40.62,17.54,63.54,15.74a41.52,41.52,0,0,0,5.69-.7c13-2.8,20.38-9.75,21-19.73.64-9.45-4.4-16.3-17.59-20.8-15.76-5.37-31.92-9.56-47.87-14.38a88,88,0,0,1-28.28-14.45c-26.84-20.58-27.86-72,8.59-94.25,16.26-9.9,34.11-13.09,52.73-12.69A170.1,170.1,0,0,1,2181.51,563Z" transform="translate(-230.71 -81.69)"/><path class="cls-1" d="M1041.18,653.17c.39,23,6.13,44,25.6,58.55,23.53,17.6,58.75,16,83-4.15,6.52-5.42,9.59-4.91,14.4,1.39,5,6.49,11,12.18,16.87,17.94,2.81,2.77,3.5,4.39,0,7.38-34.06,28.75-73,35.57-114.66,22.79-39.76-12.18-62-41.14-69.93-81.46-14.8-75.15,41.89-137.26,118.47-130.19a122.68,122.68,0,0,1,61.45,22.94c3.76,2.7,4.43,4.38,1.23,8.09-6.06,7-11.88,14.33-17.23,21.91-3.12,4.43-5,5.14-9.78,1.56-16.36-12.3-34.76-18.13-55.44-15-30.64,4.6-51,26.47-53.43,57.52C1041.41,646,1041.35,649.53,1041.18,653.17Z" transform="translate(-230.71 -81.69)"/><path class="cls-1" d="M2087.78,366.75c0-32.58.25-65.16-.2-97.74-.1-7.11,2-8.62,8.6-8.26,10.65.59,21.35.36,32,.07,4.47-.12,6.08.93,6.07,5.77q-.24,99.39,0,198.77c0,5.16-1.65,6.49-6.58,6.33-10.94-.34-21.91-.45-32.84,0-5.81.26-7.26-1.51-7.21-7.23C2087.92,431.91,2087.78,399.33,2087.78,366.75Z" transform="translate(-230.71 -81.69)"/><path class="cls-1" d="M817.78,234.16c6.58-6.58,13-13.36,19.79-19.69,6.48-6,13.07-6.07,19.08-.81s7.15,13.13,1.33,19.72a452.22,452.22,0,0,1-41.18,41.19c-6.91,6-14,5.12-19.71-1s-5.46-12.73,1-19.61,13.12-13.2,19.7-19.78Z" transform="translate(-230.71 -81.69)"/><path class="cls-1" d="M801,183.35c-8.49-3.78-17.07-7.38-25.45-11.38-7.65-3.66-9.86-9.36-7-16.74,3-7.86,8.95-11.63,16.78-8.89a397.93,397.93,0,0,1,54.64,24.19c7.25,3.84,8.77,11.31,5.21,18.41s-9.93,9.44-18,6.14c-8.85-3.62-17.5-7.71-26.24-11.6Z" transform="translate(-230.71 -81.69)"/><path class="cls-1" d="M945.22,183.35c8.49-3.78,17.07-7.38,25.45-11.38,7.65-3.66,9.86-9.36,7-16.74-3-7.86-9-11.63-16.78-8.89a397.93,397.93,0,0,0-54.64,24.19c-7.25,3.84-8.77,11.31-5.22,18.41s9.94,9.44,18,6.14c8.85-3.62,17.5-7.71,26.24-11.6Z" transform="translate(-230.71 -81.69)"/><path class="cls-1" d="M859.18,122.82c0-9.29-.2-18.58.06-27.87.23-8.48,4.54-12.81,12.44-13.23,8.4-.44,14.26,3.46,14.94,11.72a397.37,397.37,0,0,1,.09,59.76c-.56,8.18-6.77,12.61-14.7,12.24s-12.66-5.24-12.91-13.92c-.29-9.56-.07-19.13-.07-28.7Z" transform="translate(-230.71 -81.69)"/><path class="cls-1" d="M909.93,252.44c-6.57-6.57-13.29-13-19.67-19.75-5.84-6.16-5.85-12.27-.56-18.15,5.63-6.26,12.53-7.64,18.85-2.28a398.62,398.62,0,0,1,42.33,42.19c5.38,6.18,4.12,13.71-1.74,19.05s-12.66,5.25-19-.71c-7-6.56-13.58-13.48-20.34-20.24Z" transform="translate(-230.71 -81.69)"/><path class="cls-1" d="M720.59,586.91c9.13.1,15.46,7,15.18,16.51-.23,7.88-7.69,15-15.54,14.91-8.18-.13-15.22-7.67-15.17-16.25C705.12,593.11,711.56,586.82,720.59,586.91Z" transform="translate(-230.71 -81.69)"/><path class="cls-1" d="M1576,751.32q-16.82-35.93-33.86-71.73c-1.87-3.9-2.51-6.06,2.44-8.74,24-13,36.1-36.59,32.86-62.71-3.56-28.72-19.69-47.63-47.48-55.43-7.11-2-14.37-3.54-21.82-3.59-33.15-.2-66.3-.29-99.45-.56-3.69,0-5.25.61-5.24,4.86q.21,100.27,0,200.57c0,4.45,1.45,5.52,5.65,5.42,11-.26,21.93-.43,32.87.05,6.3.27,8.52-1.3,8.37-8.07-.46-21.36,0-42.74-.28-64.11,0-4.91,1-6.71,6.3-6.51a313.37,313.37,0,0,0,32.87-.07c6.77-.44,9.38,2.15,11.69,8.09,8.33,21.33,17.23,42.44,26.07,63.57,1.35,3.24,1.83,7.25,7.42,7.1,14.71-.41,29.43-.14,44.18-.14C1579,755.92,1577.1,753.7,1576,751.32ZM1527.11,632c-5.44,9.37-14.14,13.81-24.38,14.26-15.87.71-31.78.27-47.67.57-4.22.08-5-1.73-4.94-5.41.19-8.49.06-17,.06-25.49,0-8.22.16-16.44-.08-24.66-.11-4,.74-5.89,5.36-5.79,14.79.3,29.62-.4,44.39.31C1526,587,1539.59,610.48,1527.11,632Z" transform="translate(-230.71 -81.69)"/><path class="cls-1" d="M1798.6,646.39c-2-53.36-33.79-88.4-86.77-95.6-31.1-4.23-62.39-1.29-93.58-2.23-3.85-.11-4.53,1.5-4.46,4.84.18,8.21.06,16.44.06,24.66,0,57.54.16,115.08-.2,172.61-.05,7.53,2.13,9.14,9.15,8.82,12.85-.58,25.74-.17,44.55-.17,8.32,0,22.58.34,36.77-1.21,29.51-3.2,56.28-12.31,75-37C1795.91,699,1799.62,673.24,1798.6,646.39Zm-50,33.86c-7.67,26-28.34,40.29-59.32,41.31-7.66.26-15.36-.3-23,.21-5.34.35-6.29-1.69-6.23-6.52.25-20.53.11-41.07.11-61.62,0-20.26.21-40.53-.14-60.79-.1-5.52,1.53-7,6.84-6.75,12.56.52,25.21-.68,37.65,2,24.73,5.36,39.81,20.7,45.58,45A90.6,90.6,0,0,1,1748.57,680.25Z" transform="translate(-230.71 -81.69)"/><path class="cls-1" d="M2009.93,757.53Q1973.15,655.28,1936.39,553c-1.39-3.89-3.81-4.52-7.48-4.47-13.15.19-26.31.43-39.44-.09-5.82-.23-7.86,2-9.7,7.13-19.79,55.12-39.9,110.13-59.85,165.19-4.57,12.64-8.88,25.37-13.48,38.54,15.42,0,29.67-.11,43.91.08,4.16.05,6.28-1,7.51-5.41,2.71-9.7,6.45-19.1,9.24-28.77,1.15-4,3-5,6.9-5q34.53.25,69,0c4,0,5.72,1.14,6.87,5,2.87,9.68,6.57,19.12,9.47,28.79,1.26,4.19,3.33,5.42,7.55,5.35,14.23-.25,28.47-.1,42.83-.1A7.91,7.91,0,0,0,2009.93,757.53Zm-129.19-73.78c9-27.54,17.85-54.63,27.41-83.91L1936,683.75Z" transform="translate(-230.71 -81.69)"/><path class="cls-1" d="M1448.11,467.5q-36.43-101-72.83-202c-1.37-3.81-3.51-4.67-7.24-4.62-12.87.21-25.77.64-38.6-.14-7-.42-9.46,2.62-11.51,8.39-11.76,33.1-23.79,66.1-35.68,99.15-12.24,34-24.43,68-37.09,103.35,15.32,0,29.55-.24,43.76.14,4.81.13,6.62-1.65,7.9-5.94,2.81-9.41,6.45-18.57,9.11-28,1.21-4.31,3.17-5.42,7.4-5.38q34.1.28,68.19,0c4.34,0,6.08,1.44,7.3,5.5,2.81,9.36,6.55,18.44,9.26,27.82,1.3,4.48,3.14,6.11,7.89,6,14.23-.32,28.47-.12,43.11-.12A39,39,0,0,0,1448.11,467.5ZM1319.55,396c9.11-27.73,18-54.86,27.49-83.72,9.5,28.66,18.53,55.92,27.74,83.72Z" transform="translate(-230.71 -81.69)"/><path class="cls-1" d="M1874,463q-32.38-88.69-64.43-177.5c-2.87-7.92-3.85-18.28-9.48-23-6.16-5.14-16.86-.92-24.06-1.64-7.79,0-14.14.45-20.39-.13-5.73-.53-8,1.76-9.9,7q-35.4,98.89-71.3,197.6c-1.67,4.62-1.67,6.42,3.87,6.32,12.6-.23,25.22-.29,37.82,0,4.88.12,6.74-2.2,8-6.3,2.91-9.39,6.22-18.66,9-28.09,1.12-3.8,3-4.95,6.88-4.92q34.53.27,69.07,0c4,0,5.73,1.46,6.83,5,2.76,8.81,6.11,17.45,8.51,26.34,1.6,6,4.29,8.39,10.74,8.05a302.87,302.87,0,0,1,32.87,0C1876,472.2,1876.37,469.54,1874,463Zm-77.19-66.64c-16.4-.26-32.81-.09-50.21-.09l27.69-84.2c9,27.55,17.29,53.12,25.85,78.59C1801.44,394.58,1802.27,396.47,1796.8,396.38Z" transform="translate(-230.71 -81.69)"/><path class="cls-1" d="M2852.93,464.31q-35.88-98.71-71.25-197.62c-1.45-4-3.41-6.05-8.23-5.91-13.42.39-26.86.33-40.28,0-4.59-.11-6.74,1.33-8.26,5.71-6.33,18.28-13,36.43-19.63,54.63-17.23,47.67-34.32,95.4-51.83,143-2.48,6.74-1,7.87,5.52,7.6,11.22-.46,22.48-.42,33.7,0,5.84.22,8.95-1.42,10.52-7.41,2.34-9,5.8-17.64,8.47-26.54,1.18-3.95,3-5.5,7.38-5.41,15.06.34,30.14.1,45.21.15,9.31,0,20.68-3.05,27.35,1.19,6.94,4.41,7,16.78,10,25.7,4.11,12.19,4.06,12.2,17.43,12.2h10.69c6,0,12.08-.31,18.08.09C2854.18,472.1,2855.13,470.36,2852.93,464.31Zm-77.43-67.93c-16.4-.26-32.8-.09-50.22-.09,9.19-28,18.17-55.28,27.7-84.26,9,27.56,17.28,53.14,25.82,78.62C2780.09,394.5,2781,396.47,2775.5,396.38Z" transform="translate(-230.71 -81.69)"/><path class="cls-1" d="M610.5,780.5c-16.69,9.54-34.55,6-45.22-8.8-5.47-7.59-7.12-16.47-7.15-25.69-.1-29.88-.27-59.76-.2-89.63,0-5.88-.81-8.28-7.14-4.78-9.78,5.42-20.61,7.17-31.69,7.33-8.22.12-16.45,0-24.67.05-17.62.06-31.68,7.31-42.67,20.94-13.39,16.6-17.21,36.26-18.35,56.79-.64,11.55-.58,11.56,10.67,11.56,26.05,0,52.09.16,78.13-.12,5.57-.06,7.45,1.54,8.08,7.15,1.73,15.55,7,29.72,18.05,41.37,12.56,13.3,27.43,18.72,45.31,13.17,16.91-5.26,32.1-24.12,33.47-41.13C621.5,772.73,616.31,777.17,610.5,780.5ZM509,717h-9c-7.94,0-15.87-.2-23.79.07-4.62.16-5.55-1.8-5.11-5.93,1-9.56,6.11-16.06,15.42-19.09,12.8-4.18,26-2.63,39.06-2.48,3,0,4.58,1.43,4.38,4.55,0,.55,0,1.1,0,1.64C530.37,717,530.37,717,509,717Z" transform="translate(-230.71 -81.69)"/><path class="cls-1" d="M565.88,604.41" transform="translate(-230.71 -81.69)"/><path class="cls-1" d="M567,604.06l40.84-12.85q35.71-11.24,71.43-22.43c.84-.27,1-.53.7-1.35q-3.6-11.32-7.11-22.69c-.24-.77-.51-.87-1.28-.62Q636.83,555.08,602,566q-18.07,5.68-36.16,11.35-18.07-5.7-36.16-11.35-34.79-10.92-69.56-21.88c-.77-.25-1-.15-1.28.62q-3.51,11.37-7.11,22.69c-.26.82-.13,1.08.7,1.35Q488.2,580,523.9,591.21l40.85,12.85,1.13.35" transform="translate(-230.71 -81.69)"/></svg>