<svg id="Layer_1" data-name="Layer 1" xmlns="http://www.w3.org/2000/svg" viewBox="0 0 346.57 338.3"><defs><style>.cls-1{fill:#fff;}</style></defs><title>pm-logo-white</title><path class="cls-1" d="M915,904.41V963c0,4.06-.13,8.14.09,12.19.15,2.66-.33,3.92-3.4,3.65a64,64,0,0,0-10.27,0c-2.78.21-3.68-.53-3.66-3.48.11-12.82-.08-25.65-.15-38.47-.07-12.31-.21-24.63-.15-36.94,0-2.33-.67-3.3-2.93-3.87-3.91-1-7.71-2.39-11.56-3.6-3.56-1.11-5.15-.07-5.27,3.76-.31,9.26-.61,18.52-.66,27.79-.14,23.61-.15,47.23-.21,70.84,0,1.7-.56,3.43,2.45,3.4,22.47-.23,28.3,12.26,32.59,28,.23.85.38,1.72.57,2.59,2,9.46,2,9.37-7.47,9.33-16.74-.08-33.48,0-50.23,0-7.62,0-15.23,0-22.85,0-.83,0-1.94.46-2.34-.64s.73-1.49,1.32-2.06q7.23-7,14.51-14c.74-.71,1.58-1.73,2.55-.71,3.77,3.92,8.8,3.78,13.51,3.91,10.78.31,21.58.08,32.37.18,2,0,2.35-.65,2-2.45-1.06-5.75-3.93-8.52-10.25-9.54a101.65,101.65,0,0,0-20.1-.92c-3,.1-4-.63-4-3.72.1-36.82.17-73.63.72-110.45.19-12.86,9.09-21.16,18.62-24.18,29.72-9.42,59.7-18,89.54-27.11,2.29-.7,2.83-.18,3.34,1.85a74.49,74.49,0,0,0,2.95,9.38c.93,2.29,0,2.9-1.94,3.49q-33.24,9.87-66.47,19.85c-1.3.39-2.59.83-5,1.6C911,885,917.79,887,924.54,889q26.88,7.93,53.76,15.88a6.21,6.21,0,0,0,3.69.2c35.55-10.22,71.55-18.91,106.59-30.87,6.69-2.28,13.46-4.37,19.71-7.74,1.21-.65,3.25-1.37,2.94-2.56s-1.88-2.36-3.65-2.88c-8.84-2.59-17.62-5.39-26.41-8.14Q1030.56,837,980,821.17a8.51,8.51,0,0,0-5.16-.22c-41,11.79-82.2,23.16-123,35.84-3.25,1-6.43,2.25-9.6,3.5-.85.33-2.18.63-2,1.83.11.77,1.11,1.13,2,1.48,3.39,1.37,6.66,3,10.06,4.36,1.54.61,1.9,1.19,1.22,2.78-1.44,3.36-2.73,6.79-3.91,10.25-.56,1.64-1.3,1.88-2.81,1.2-5-2.22-10.12-3.93-14.67-7-10.49-7-10.47-19.77.07-26.68,5.37-3.52,11.52-5.19,17.53-7,41.43-12.66,83.1-24.51,124.82-36.17a9.63,9.63,0,0,1,5.89.07c17.24,5.55,34.48,11.08,51.77,16.45q39,12.15,78.09,24.06c5.12,1.56,9.6,4,12.91,8.25,6.35,8.23,4.34,18.06-5.05,24.07-8.38,5.38-17.91,8.07-27.24,11.17q-15.45,5.13-31,9.84c-2.46.74-3.24,1.78-3.22,4.4.09,14.72-.14,29.45-.06,44.17,0,3-.74,4.13-3.85,3.87a71.84,71.84,0,0,0-10.27-.11c-2.6.14-3.44-.59-3.39-3.33.22-12.56.12-25.13.36-37.7,0-3-.85-3.27-3.43-2.54-17.5,4.92-35.05,9.71-52.56,14.62a11.77,11.77,0,0,1-6.95-.2c-19.59-5.9-39.22-11.65-58.84-17.44C916.91,904.78,916.16,904.67,915,904.41Z" transform="translate(-824.22 -730.7)"/><path class="cls-1" d="M1115.52,959.59q-7.69,8.32-15.39,16.65c-1.39,1.51-2.17.28-3.05-.63-2-2.07-4.19-3.62-7.23-3.67-5.48-.08-8.65,4.55-6.46,9.54a15.78,15.78,0,0,0,3.72,4.76c6,6,12,12,16.79,19a32.7,32.7,0,0,1,5.43,12.42c1.27,7-.92,12.13-6.83,16a35,35,0,0,1-19.39,5.81q-45.33,0-90.65-.16c-3.83,0-4.3-.6-3.14-4.27,3-9.44,9.85-16.1,16.54-22.86,2-2,4.18-4,7-6.6-6.66-.59-12.29-.84-16.93,3.36-1.73,1.56-2.6,1.46-3.63-.51-2.4-4.58-4.81-9.16-7.33-13.68-1.22-2.19-.36-2.53,1.68-2.53,15.49,0,31,0,46.47-.09,3,0,2.73,1.18,1.71,3.17a69.19,69.19,0,0,1-12.33,16.8c-3.7,3.77-7.27,7.68-11.74,12.41h7.33c7.87,0,15.74-.06,23.61.08,2.53.05,3.39-.66,3-3.26-.45-3-.38-6.18-3.86-7.65-1.11-.47-1.16-1.24-.39-2.08,5.55-6,11.12-12,16.74-18,1.28,1.47.77,2.79.79,4,.11,8,.23,16,.15,24,0,2.33.65,3.06,3,3q12.2-.21,24.38-.07c4.11,0,7.29-1.42,8.74-5.33s-.73-6.89-3.48-9.33a110.26,110.26,0,0,1-14.1-14.4c-3.29-4.22-6.17-8.68-7.42-14-1.61-6.83.16-12.62,5.62-17,4.83-3.89,10.11-6.38,16.68-6,7.82.4,15.67.09,23.51.09Z" transform="translate(-824.22 -730.7)"/><path class="cls-1" d="M1096.16,801.33c3-3.05,6-6.19,9.17-9.12,3-2.79,6.05-2.81,8.84-.37s3.31,6.08.62,9.13a209.5,209.5,0,0,1-19.08,19.08c-3.2,2.79-6.51,2.37-9.13-.45s-2.53-5.89.48-9.08,6.08-6.12,9.13-9.17Z" transform="translate(-824.22 -730.7)"/><path class="cls-1" d="M1088.37,777.79c-3.94-1.75-7.91-3.41-11.79-5.27-3.55-1.69-4.57-4.33-3.26-7.75,1.4-3.64,4.15-5.39,7.77-4.12a183.2,183.2,0,0,1,25.32,11.21c3.35,1.77,4.06,5.24,2.41,8.52s-4.6,4.38-8.32,2.85c-4.1-1.68-8.11-3.57-12.16-5.37Z" transform="translate(-824.22 -730.7)"/><path class="cls-1" d="M1155.2,777.79c3.93-1.75,7.9-3.41,11.78-5.27,3.55-1.69,4.57-4.33,3.26-7.75-1.39-3.64-4.14-5.39-7.77-4.12a183.08,183.08,0,0,0-25.31,11.21c-3.36,1.77-4.06,5.24-2.42,8.52s4.6,4.38,8.33,2.85c4.1-1.68,8.11-3.57,12.16-5.37Z" transform="translate(-824.22 -730.7)"/><path class="cls-1" d="M1115.34,749.76c0-4.31-.09-8.61,0-12.91.11-3.93,2.1-5.94,5.76-6.13,3.89-.21,6.61,1.6,6.92,5.43a184,184,0,0,1,0,27.68c-.27,3.79-3.14,5.84-6.81,5.67s-5.87-2.43-6-6.45c-.13-4.43,0-8.86,0-13.29Z" transform="translate(-824.22 -730.7)"/><path class="cls-1" d="M1138.85,809.8c-3-3-6.15-6-9.11-9.15-2.7-2.85-2.71-5.69-.26-8.41,2.61-2.9,5.8-3.54,8.73-1a184.58,184.58,0,0,1,19.61,19.54c2.49,2.86,1.91,6.35-.81,8.83s-5.86,2.43-8.79-.33c-3.22-3-6.29-6.25-9.42-9.38Z" transform="translate(-824.22 -730.7)"/><path class="cls-1" d="M1051.14,964.73c4.23,0,7.16,3.23,7,7.65a7.12,7.12,0,1,1-14.22-.62A6.82,6.82,0,0,1,1051.14,964.73Z" transform="translate(-824.22 -730.7)"/><path class="cls-1" d="M1000.14,1054.41c-7.72,4.42-16,2.78-20.94-4.08-2.54-3.51-3.3-7.63-3.31-11.9,0-13.84-.13-27.68-.09-41.52,0-2.72-.38-3.83-3.31-2.21-4.53,2.51-9.55,3.32-14.68,3.4-3.81,0-7.62,0-11.43,0-8.16,0-14.67,3.38-19.77,9.7-6.2,7.69-8,16.8-8.5,26.31-.29,5.35-.26,5.35,4.95,5.35,12.06,0,24.13.08,36.19-.06,2.58,0,3.45.72,3.74,3.32.8,7.2,3.26,13.76,8.36,19.16,5.82,6.16,12.71,8.67,21,6.1,7.83-2.43,14.87-11.17,15.5-19C1005.24,1050.81,1002.84,1052.86,1000.14,1054.41Zm-47-29.4h-4.18c-3.68,0-7.35-.09-11,0-2.14.08-2.57-.83-2.37-2.74a9.73,9.73,0,0,1,7.14-8.85c5.93-1.94,12-1.22,18.1-1.15,1.38,0,2.12.67,2,2.11,0,.25,0,.51,0,.76C963,1025,963,1025,953.11,1025Z" transform="translate(-824.22 -730.7)"/><path class="cls-1" d="M979.48,972.84" transform="translate(-824.22 -730.7)"/><path class="cls-1" d="M980,972.68l18.93-5.95,33.08-10.4c.39-.12.45-.24.33-.62-1.12-3.5-2.21-7-3.3-10.51-.11-.36-.23-.4-.59-.29l-32.22,10.14q-8.37,2.63-16.75,5.25-8.37-2.64-16.75-5.25-16.12-5.06-32.22-10.14c-.36-.11-.49-.07-.6.29q-1.62,5.26-3.29,10.51c-.12.38-.06.5.32.62L960,966.73,979,972.68l.53.16" transform="translate(-824.22 -730.7)"/></svg>